PathFileType	4	(X/Y/Z)	pose_F01_0-94.trc
DataRate	CameraRate	NumFrames	NumMarkers	Units	OrigDataRate	OrigDataStartFrame	OrigNumFrames
30	30	13	21	m	30	26	94
Frame#	Time	CHip			RHip			RKnee			RAnkle			RBigToe			RSmallToe			RHeel			LHip			LKnee			LAnkle			LBigToe			LSmallToe			LHeel			Neck			Nose			RShoulder			RElbow			RWrist			LShoulder			LElbow			LWrist			
		X1	Y1	Z1	X2	Y2	Z2	X3	Y3	Z3	X4	Y4	Z4	X5	Y5	Z5	X6	Y6	Z6	X7	Y7	Z7	X8	Y8	Z8	X9	Y9	Z9	X10	Y10	Z10	X11	Y11	Z11	X12	Y12	Z12	X13	Y13	Z13	X14	Y14	Z14	X15	Y15	Z15	X16	Y16	Z16	X17	Y17	Z17	X18	Y18	Z18	X19	Y19	Z19	X20	Y20	Z20	X21	Y21	Z21	
26	0.8666666666666667	-0.2670939241663298	1.8774204359492608	-0.5381218555392024	-0.2832085414899597	1.8743547079877174	-0.4680367057992265	-0.2952877413608756	1.7277774476439676	-0.39314781465347226	-0.3257738292129916	1.6021503980656941	-0.36940706748204016							-0.32952533231943026	1.59001853922602	-0.3822508152780784	-0.25268718223536374	1.8801118328452955	-0.6005104594753691	-0.2643354493224134	1.7307261807390628	-0.6003978677957814													-0.27220673425647507	2.0514933985252553	-0.5582978821986322	-0.25522659661811314	2.118662298509226	-0.5311135955517264	-0.2928091838551748	2.0456175582846825	-0.46324306585419034	-0.30053429574694684	1.9569411570139543	-0.4245162889221149	-0.3032237708964556	1.8766720209006815	-0.397608201752499	-0.24437534673006603	2.057281007711119	-0.6570162154443775	-0.24254356257250445	1.9665917349573006	-0.6690198454088802	-0.2318440148318489	1.8820853165406568	-0.6758401414417379
27	0.9	-0.26742021563393537	1.8747034170046133	-0.5378749609509234	-0.2823607403974565	1.8728516542462879	-0.4647831604609204	-0.2952877413608756	1.7277774476439676	-0.39314781465347226	-0.3257738292129916	1.6021503980656941	-0.36940706748204016							-0.32952533231943026	1.59001853922602	-0.3822508152780784	-0.2531254008909561	1.8787950196179002	-0.6004600874957883	-0.26416874600305335	1.7260700604172878	-0.6001299425844894													-0.2721217837437393	2.052604934128558	-0.5581859194067831	-0.25521272902497816	2.119700402519076	-0.5310161274036501	-0.2927636833260244	2.0480266545334427	-0.463671133839328	-0.3025230674284788	1.9609195738885037	-0.4313305308599837	-0.3020536856433317	1.8800987109282474	-0.39485742243551747	-0.2444113870929039	2.057122764164507	-0.6570005076012924	-0.23968625415755182	1.964859194731741	-0.6682837570384312	-0.23250183753020565	1.880187671928904	-0.6755095118170535
28	0.9333333333333333	-0.26705073766661547	1.8771861298945767	-0.5381751983480484	-0.2802926630848237	1.8741560361514273	-0.4670414292825601	-0.2952877413608756	1.7277774476439676	-0.39314781465347226	-0.3257738292129916	1.6021503980656941	-0.36940706748204016							-0.32952533231943026	1.59001853922602	-0.3822508152780784	-0.25278243889419344	1.8810677418770752	-0.6006729646810469	-0.2639027375548354	1.726496843278776	-0.600058539227892													-0.2721178531094956	2.0513040338407467	-0.5578014289008909	-0.2551588093778021	2.1197255210206434	-0.5310271141789862	-0.29191879666639586	2.048173211716429	-0.468682670242557	-0.2996502030425173	1.960776700130636	-0.4302641985136359	-0.3019164495861043	1.8803432983162576	-0.39453100826884785	-0.2464362796768555	2.0558689748542553	-0.6545785809369117	-0.24462414099132626	1.9647703850951992	-0.6667026105778762	-0.23434470768847837	1.8756595032743943	-0.6727868518888347
29	0.9666666666666667	-0.2668638905745545	1.8762594069372995	-0.5379589984754968	-0.2799826333402702	1.8739266395639516	-0.46688549128443446	-0.2952877413608756	1.7277774476439676	-0.39314781465347226	-0.3257738292129916	1.6021503980656941	-0.36940706748204016							-0.32952533231943026	1.59001853922602	-0.3822508152780784	-0.24961348786188886	1.8787136923973842	-0.599457704198605	-0.26363672910661745	1.7269236261402638	-0.5999871358712946													-0.2721313957066915	2.0525441235605046	-0.5582471093473697	-0.2551855947091225	2.119727918044026	-0.53103475382485	-0.29083960795110464	2.0468841447687915	-0.4652266562623394	-0.29903944669058397	1.965218520772402	-0.4298045616186931	-0.3012446735607794	1.8912908442401934	-0.39500124484104077	-0.2464703371433713	2.05712549181211	-0.6549653871237759	-0.242592785405496	1.9660663744759255	-0.6691208510023767	-0.2313509817390348	1.8767616023354905	-0.6718772146717648
30	1.0	-0.266904007453863	1.8789136595596407	-0.5384368491203466	-0.2809868095503245	1.8772853636421947	-0.4704049411771075	-0.2952877413608756	1.7277774476439676	-0.39314781465347226	-0.3257738292129916	1.6021503980656941	-0.36940706748204016							-0.32952533231943026	1.59001853922602	-0.3822508152780784	-0.25263985620164997	1.8830831976361222	-0.6009857348693425	-0.26337072065839945	1.727350409001752	-0.5999157325146973													-0.2721218406232731	2.052521185502162	-0.5582851875946415	-0.255194521886731	2.1184343262105085	-0.5304704905605439	-0.29089385522060673	2.0481027996822174	-0.46573205483977387	-0.29929006642918643	1.964742988873492	-0.4302046562659306	-0.29971353188238026	1.887911758114417	-0.39645491855154874	-0.24440795405192017	2.0573803334822474	-0.657055628388445	-0.24352625999503705	1.966093476623238	-0.6723052572643156	-0.23182397033393448	1.879929984257713	-0.6757823543390483
31	1.0333333333333334	-0.26727964746883887	1.8736965311747371	-0.5377416809879355	-0.280290436268916	1.8705652079067778	-0.46640907332380627	-0.2952877413608756	1.7277774476439676	-0.39314781465347226	-0.3257738292129916	1.6021503980656941	-0.36940706748204016							-0.32952533231943026	1.59001853922602	-0.3822508152780784	-0.25271835925579783	1.8778975691449922	-0.6003125507404836	-0.2631047122101815	1.72777719186324	-0.5998443291580999													-0.2721062912652187	2.0513175228803715	-0.5577344034501389	-0.25327184919145906	2.1184896656158667	-0.5324972096488552	-0.2926590312119328	2.046812271232352	-0.46305567942717496	-0.29669743713445185	1.9679238058881812	-0.42337522796576704	-0.3002386107642974	1.888040030042988	-0.39812563252863786	-0.2464636119389667	2.0572835238031617	-0.654991089060524	-0.24346404219279966	1.9665635794157796	-0.6720858897598293	-0.234238382414787	1.879162954655946	-0.6730949159011561
32	1.0666666666666667	-0.26491764787588973	1.8788587005672417	-0.5406319485368339	-0.2809461095422585	1.8769409332832354	-0.47056910683489667	-0.2952877413608756	1.7277774476439676	-0.39314781465347226	-0.3257738292129916	1.6021503980656941	-0.36940706748204016							-0.32952533231943026	1.59001853922602	-0.3822508152780784	-0.25051143825277383	1.88148218439653	-0.6029938673792347	-0.26283870376196355	1.728203974724728	-0.5997729258015025													-0.2721048667560466	2.0525007342483135	-0.5582826872616278	-0.25517710904838165	2.11849211627568	-0.5305374914693082	-0.29084109655297746	2.046798238353937	-0.4651930157762344	-0.2992005452797477	1.9674946866748375	-0.4307462070937048	-0.3007636896462146	1.8881683019715592	-0.39979634650572693	-0.24439889920858618	2.0573166543086043	-0.6571423407306141	-0.2444226041067488	1.967752498088045	-0.6755311083489643	-0.23425194247638156	1.8810896889592548	-0.6735206079316125
33	1.1	-0.2660360393148133	1.8774274418150214	-0.5435064677137589	-0.28110185722921166	1.8755642869587703	-0.4703984270528302	-0.2952877413608756	1.7277774476439676	-0.39314781465347226	-0.3257738292129916	1.6021503980656941	-0.36940706748204016							-0.32952533231943026	1.59001853922602	-0.3822508152780784	-0.251607674307076	1.8802503363909744	-0.6059351325946082	-0.2625726953137456	1.728630757586216	-0.5997015224449052													-0.272134662662765	2.052549126451689	-0.558295694222759	-0.25325719523907436	2.118557428512989	-0.5326070670605623	-0.2909282852629535	2.0456860938522525	-0.46531045911445384	-0.2994533531615036	1.9571718590778686	-0.42964331041537157	-0.300876879926165	1.8777383265441188	-0.399917195031823	-0.24650351648509233	2.05725563619717	-0.6550458635397182	-0.2436007531957933	1.9646916349484511	-0.672407436775692	-0.2332597371531599	1.8808900287821453	-0.6788315447595118
34	1.1333333333333333	-0.26588649124388025	1.8767835522281398	-0.5433310478899779	-0.28102701454241125	1.8747134748784415	-0.4702922397199527	-0.2952877413608756	1.7277774476439676	-0.39314781465347226	-0.3257738292129916	1.6021503980656941	-0.36940706748204016							-0.32952533231943026	1.59001853922602	-0.3822508152780784	-0.2504201258297538	1.8814977346571362	-0.6029929910511825	-0.26230668686552766	1.729057540447704	-0.5996301190883078													-0.2721496236182629	2.05253693216798	-0.5582949117862197	-0.25418778352982324	2.118695404781195	-0.535599935472244	-0.29191631691593783	2.0482269663327064	-0.46865597621742455	-0.3024731536561133	1.9580866547421185	-0.43065279954543967	-0.3023165708493217	1.8756121678570532	-0.40272139094061304	-0.24646584618540499	2.057193945939886	-0.6550502793055576	-0.24129648252063932	1.966802821796767	-0.674556013278662	-0.22959356794169902	1.8825741311239876	-0.6778779685896257
35	1.1666666666666667	-0.26562423858716894	1.8769613772123568	-0.5433935776400763	-0.28187339579687587	1.874128865629016	-0.47324499650038965	-0.2952877413608756	1.7277774476439676	-0.39314781465347226	-0.3257738292129916	1.6021503980656941	-0.36940706748204016							-0.32952533231943026	1.59001853922602	-0.3822508152780784	-0.25131315960898765	1.880712491278947	-0.6059821421797464	-0.2620406784173097	1.729484323309192	-0.5995587157317104													-0.2721294175039121	2.052597231067636	-0.5583395433403121	-0.2540517713737389	2.119832409414723	-0.5354727948149254	-0.29083707228308625	2.04553803648272	-0.4647215529776766	-0.30828906325245975	1.9580191110950083	-0.42403997467633964	-0.30452154397560766	1.8770713514942583	-0.3949203704587816	-0.24441773918593618	2.057380180258506	-0.6571601925297149	-0.23435246250950145	1.9738886353692204	-0.690512506947729	-0.226977745586459	1.891900860733835	-0.6866316099588732
36	1.2	-0.2660826871347834	1.8835715284632304	-0.5443940355997859	-0.2802557568881273	1.88072194518634	-0.4763682616418213	-0.2952877413608756	1.7277774476439676	-0.39314781465347226	-0.3257738292129916	1.6021503980656941	-0.36940706748204016							-0.32952533231943026	1.59001853922602	-0.3822508152780784	-0.2486861127179629	1.8853204035519089	-0.6058132486456304	-0.2617746699690917	1.7299111061706802	-0.5994873123751131													-0.2711340188979915	2.052744781289942	-0.5633677380498464	-0.2541126814141067	2.1212749071996124	-0.5360857435448373	-0.29181955636572093	2.0492919243594576	-0.468827807871311	-0.31537951981427226	1.970080133998092	-0.409301862733244	-0.3051450790597591	1.90980571943755	-0.35753900996956756	-0.24435372413296785	2.058430579781723	-0.6570750445154987	-0.22446020721731608	1.9813967563470543	-0.7084500900295991	-0.20977393700449937	1.8989614421714005	-0.6914633820111753
37	1.2333333333333334	-0.2648872723600646	1.883510664881221	-0.5412460551882557	-0.2800733006737596	1.8819206956501684	-0.4765238085864067	-0.2952877413608756	1.7277774476439676	-0.39314781465347226	-0.3257738292129916	1.6021503980656941	-0.36940706748204016							-0.32952533231943026	1.59001853922602	-0.3822508152780784	-0.2503810260027126	1.88773498290074	-0.6038693697139131	-0.26150866152087376	1.7303378890321681	-0.5994159090185157													-0.27007849124407557	2.053604753774132	-0.56035838265339	-0.2569289728224467	2.1241490621001238	-0.5373423629777485	-0.291708954290656	2.0504439469519458	-0.4686969466106919	-0.3145945009112396	1.9809285483626637	-0.40237394237982227	-0.3015919756712855	1.9459672479580217	-0.3429436357219112	-0.24333527719889803	2.060689894043907	-0.6544333725254148	-0.2160480910361373	1.9792095166058123	-0.7382483572141402	-0.19704204653498678	1.9036600883247425	-0.6947004257422141
38	1.2666666666666666	-0.2661837600507753	1.8840311177807845	-0.5446392256462319	-0.2805843251502527	1.8812709669594991	-0.4767135646993321	-0.2952877413608756	1.7277774476439676	-0.39314781465347226	-0.3257738292129916	1.6021503980656941	-0.36940706748204016							-0.32952533231943026	1.59001853922602	-0.3822508152780784	-0.24981816001997836	1.8874069929416866	-0.6093109281841067	-0.2612426530726558	1.7307646718936562	-0.5993445056619183													-0.2701185224429272	2.0548561645563157	-0.5608987728846786	-0.25792942177844796	2.127654894725085	-0.5332043409269288	-0.29180215910945695	2.049302733313536	-0.46878774826328096	-0.3101874116120368	1.975634098165559	-0.3801574948587329	-0.2955163211542363	1.9934754837376885	-0.31871458651719464	-0.24422269643694625	2.06232018524241	-0.6579078307396402	-0.22067037088562808	1.9897711826999775	-0.7367686639836868	-0.19541491330538474	1.9836931960679896	-0.7065397631841822
